<svg aria-roledescription="gitGraph" role="graphics-document document"
     viewBox="-117.5078125 -34.70000076293945 575.5078125 214.30209350585938" height="214.30209350585938"
     xmlns="http://www.w3.org/2000/svg" width="575.5078125" id="mermaid-1704734398607" style="background-color: white;"><style>#mermaid-1704734398607{font-family:"trebuchet ms",verdana,arial,sans-serif;font-size:16px;fill:#333;}#mermaid-1704734398607 .error-icon{fill:#552222;}#mermaid-1704734398607 .error-text{fill:#552222;stroke:#552222;}#mermaid-1704734398607 .edge-thickness-normal{stroke-width:2px;}#mermaid-1704734398607 .edge-thickness-thick{stroke-width:3.5px;}#mermaid-1704734398607 .edge-pattern-solid{stroke-dasharray:0;}#mermaid-1704734398607 .edge-pattern-dashed{stroke-dasharray:3;}#mermaid-1704734398607 .edge-pattern-dotted{stroke-dasharray:2;}#mermaid-1704734398607 .marker{fill:#333333;stroke:#333333;}#mermaid-1704734398607 .marker.cross{stroke:#333333;}#mermaid-1704734398607 svg{font-family:"trebuchet ms",verdana,arial,sans-serif;font-size:16px;}#mermaid-1704734398607 .commit-id,#mermaid-1704734398607 .commit-msg,#mermaid-1704734398607 .branch-label{fill:lightgrey;color:lightgrey;font-family:'trebuchet ms',verdana,arial,sans-serif;font-family:var(--mermaid-font-family);}#mermaid-1704734398607 .branch-label0{fill:#ffffff;}#mermaid-1704734398607 .commit0{stroke:hsl(240, 100%, 46.2745098039%);fill:hsl(240, 100%, 46.2745098039%);}#mermaid-1704734398607 .commit-highlight0{stroke:hsl(60, 100%, 3.7254901961%);fill:hsl(60, 100%, 3.7254901961%);}#mermaid-1704734398607 .label0{fill:hsl(240, 100%, 46.2745098039%);}#mermaid-1704734398607 .arrow0{stroke:hsl(240, 100%, 46.2745098039%);}#mermaid-1704734398607 .branch-label1{fill:black;}#mermaid-1704734398607 .commit1{stroke:hsl(60, 100%, 43.5294117647%);fill:hsl(60, 100%, 43.5294117647%);}#mermaid-1704734398607 .commit-highlight1{stroke:rgb(0, 0, 160.5);fill:rgb(0, 0, 160.5);}#mermaid-1704734398607 .label1{fill:hsl(60, 100%, 43.5294117647%);}#mermaid-1704734398607 .arrow1{stroke:hsl(60, 100%, 43.5294117647%);}#mermaid-1704734398607 .branch-label2{fill:black;}#mermaid-1704734398607 .commit2{stroke:hsl(80, 100%, 46.2745098039%);fill:hsl(80, 100%, 46.2745098039%);}#mermaid-1704734398607 .commit-highlight2{stroke:rgb(48.8333333334, 0, 146.5000000001);fill:rgb(48.8333333334, 0, 146.5000000001);}#mermaid-1704734398607 .label2{fill:hsl(80, 100%, 46.2745098039%);}#mermaid-1704734398607 .arrow2{stroke:hsl(80, 100%, 46.2745098039%);}#mermaid-1704734398607 .branch-label3{fill:#ffffff;}#mermaid-1704734398607 .commit3{stroke:hsl(210, 100%, 46.2745098039%);fill:hsl(210, 100%, 46.2745098039%);}#mermaid-1704734398607 .commit-highlight3{stroke:rgb(146.5000000001, 73.2500000001, 0);fill:rgb(146.5000000001, 73.2500000001, 0);}#mermaid-1704734398607 .label3{fill:hsl(210, 100%, 46.2745098039%);}#mermaid-1704734398607 .arrow3{stroke:hsl(210, 100%, 46.2745098039%);}#mermaid-1704734398607 .branch-label4{fill:black;}#mermaid-1704734398607 .commit4{stroke:hsl(180, 100%, 46.2745098039%);fill:hsl(180, 100%, 46.2745098039%);}#mermaid-1704734398607 .commit-highlight4{stroke:rgb(146.5000000001, 0, 0);fill:rgb(146.5000000001, 0, 0);}#mermaid-1704734398607 .label4{fill:hsl(180, 100%, 46.2745098039%);}#mermaid-1704734398607 .arrow4{stroke:hsl(180, 100%, 46.2745098039%);}#mermaid-1704734398607 .branch-label5{fill:black;}#mermaid-1704734398607 .commit5{stroke:hsl(150, 100%, 46.2745098039%);fill:hsl(150, 100%, 46.2745098039%);}#mermaid-1704734398607 .commit-highlight5{stroke:rgb(146.5000000001, 0, 73.2500000001);fill:rgb(146.5000000001, 0, 73.2500000001);}#mermaid-1704734398607 .label5{fill:hsl(150, 100%, 46.2745098039%);}#mermaid-1704734398607 .arrow5{stroke:hsl(150, 100%, 46.2745098039%);}#mermaid-1704734398607 .branch-label6{fill:black;}#mermaid-1704734398607 .commit6{stroke:hsl(300, 100%, 46.2745098039%);fill:hsl(300, 100%, 46.2745098039%);}#mermaid-1704734398607 .commit-highlight6{stroke:rgb(0, 146.5000000001, 0);fill:rgb(0, 146.5000000001, 0);}#mermaid-1704734398607 .label6{fill:hsl(300, 100%, 46.2745098039%);}#mermaid-1704734398607 .arrow6{stroke:hsl(300, 100%, 46.2745098039%);}#mermaid-1704734398607 .branch-label7{fill:black;}#mermaid-1704734398607 .commit7{stroke:hsl(0, 100%, 46.2745098039%);fill:hsl(0, 100%, 46.2745098039%);}#mermaid-1704734398607 .commit-highlight7{stroke:rgb(0, 146.5000000001, 146.5000000001);fill:rgb(0, 146.5000000001, 146.5000000001);}#mermaid-1704734398607 .label7{fill:hsl(0, 100%, 46.2745098039%);}#mermaid-1704734398607 .arrow7{stroke:hsl(0, 100%, 46.2745098039%);}#mermaid-1704734398607 .branch{stroke-width:1;stroke:#333333;stroke-dasharray:2;}#mermaid-1704734398607 .commit-label{font-size:10px;fill:#000021;}#mermaid-1704734398607 .commit-label-bkg{font-size:10px;fill:#ffffde;opacity:0.5;}#mermaid-1704734398607 .tag-label{font-size:10px;fill:#131300;}#mermaid-1704734398607 .tag-label-bkg{fill:#ECECFF;stroke:hsl(240, 60%, 86.2745098039%);}#mermaid-1704734398607 .tag-hole{fill:#333;}#mermaid-1704734398607 .commit-merge{stroke:#ECECFF;fill:#ECECFF;}#mermaid-1704734398607 .commit-reverse{stroke:#ECECFF;fill:#ECECFF;stroke-width:3;}#mermaid-1704734398607 .commit-highlight-inner{stroke:#ECECFF;fill:#ECECFF;}#mermaid-1704734398607 .arrow{stroke-width:8;stroke-linecap:round;fill:none;}#mermaid-1704734398607 .gitTitleText{text-anchor:middle;font-size:18px;fill:#333;}:root{--mermaid-font-family:"trebuchet ms",verdana,arial,sans-serif;}</style><g/><g class="commit-bullets"/><g class="commit-labels"/><g><line class="branch branch0" y2="0" x2="450" y1="0" x1="0"/><rect transform="translate(-19, -9.5)" height="23" width="68.234375" y="-1.5" x="-84.234375" ry="4" rx="4" class="branchLabelBkg label0"/><g class="branchLabel"><g transform="translate(-94.234375, -10.5)" class="label branch-label0"><text><tspan class="row" x="0" dy="1em" xml:space="preserve">master</tspan></text></g></g><line class="branch branch1" y2="90" x2="450" y1="90" x1="0"/><rect transform="translate(-19, 80.5)" height="23" width="74.5078125" y="-1.5" x="-90.5078125" ry="4" rx="4" class="branchLabelBkg label1"/><g class="branchLabel"><g transform="translate(-100.5078125, 79.5)" class="label branch-label1"><text><tspan class="row" x="0" dy="1em" xml:space="preserve">develop</tspan></text></g></g></g><g class="commit-arrows"><path class="arrow arrow0" d="M 10 0 L 10 0  10 0 L 60 0"/><path class="arrow arrow1" d="M 10 0 L 10 70 A 20 20, 0, 0, 0, 30 90 L 110 90"/><path class="arrow arrow0" d="M 60 0 L 60 0  60 0 L 160 0"/><path class="arrow arrow1" d="M 110 90 L 110 90  110 90 L 210 90"/><path class="arrow arrow0" d="M 160 0 L 160 0  160 0 L 260 0"/><path class="arrow arrow1" d="M 210 90 L 210 90  210 90 L 310 90"/><path class="arrow arrow0" d="M 260 0 L 260 0  260 0 L 360 0"/><path class="arrow arrow0" d="M 210 90 L 210 55 A 10 10, 0, 0, 1, 220 45 L 350 45 A 10 10, 0, 0, 0, 360 35 L 360 0"/><path class="arrow arrow0" d="M 360 0 L 360 0  360 0 L 410 0"/></g><g class="commit-bullets"><circle class="commit Initial commit commit0" r="10" cy="0" cx="10"/><circle class="commit 1-6f1f799 commit0" r="10" cy="0" cx="60"/><circle class="commit 2-7994887 commit1" r="10" cy="90" cx="110"/><circle class="commit 3-ad4cef8 commit0" r="10" cy="0" cx="160"/><circle class="commit Important commit commit1" r="10" cy="90" cx="210"/><circle class="commit 5-bf3d385 commit0" r="10" cy="0" cx="260"/><circle class="commit 6-3fe1e1d commit1" r="10" cy="90" cx="310"/><circle class="commit 7-7093406 commit-cherry-pick" r="10" cy="0" cx="360"/><circle class="commit 7-7093406 commit-cherry-pick" fill="#fff" r="2.75" cy="2" cx="357"/><circle class="commit 7-7093406 commit-cherry-pick" fill="#fff" r="2.75" cy="2" cx="363"/><line class="commit 7-7093406 commit-cherry-pick" stroke="#fff" y2="-5" x2="360" y1="1" x1="363"/><line class="commit 7-7093406 commit-cherry-pick" stroke="#fff" y2="-5" x2="360" y1="1" x1="357"/><circle class="commit 8-1b1d89b commit0" r="10" cy="0" cx="410"/></g><g class="commit-labels"><g transform="translate(-35.58251953125, 31.72646484375) rotate(-45, 0, 0)"><rect height="15" width="67.9013671875" y="13.5" x="-23.95068359375" class="commit-label-bkg"/><text class="commit-label" y="25" x="-21.95068359375">Initial commit</text></g><g transform="translate(-27.748359375, 24.716953125) rotate(-45, 50, 0)"><rect height="15" width="47.28515625" y="13.5" x="36.357421875" class="commit-label-bkg"/><text class="commit-label" y="25" x="38.357421875">1-6f1f799</text></g><g transform="translate(-28.924726562500002, 25.7694921875) rotate(-45, 100, 90)"><rect height="15" width="50.380859375" y="103.5" x="84.8095703125" class="commit-label-bkg"/><text class="commit-label" y="115" x="86.8095703125">2-7994887</text></g><g transform="translate(-28.433027343750002, 25.32955078125) rotate(-45, 150, 0)"><rect height="15" width="49.0869140625" y="13.5" x="135.45654296875" class="commit-label-bkg"/><text class="commit-label" y="25" x="137.45654296875">3-ad4cef8</text></g><g transform="translate(-42.58876953125, 37.99521484375) rotate(-45, 200, 90)"><rect height="15" width="86.3388671875" y="103.5" x="166.83056640625" class="commit-label-bkg"/><text class="commit-label" y="115" x="168.83056640625">Important commit</text></g><g transform="translate(-28.2990625, 25.2096875) rotate(-45, 250, 0)"><rect height="15" width="48.734375" y="13.5" x="235.6328125" class="commit-label-bkg"/><text class="commit-label" y="25" x="237.6328125">5-bf3d385</text></g><g transform="translate(-28.496113281249997, 25.385996093750002) rotate(-45, 300, 90)"><rect height="15" width="49.2529296875" y="103.5" x="285.37353515625" class="commit-label-bkg"/><text class="commit-label" y="115" x="287.37353515625">6-3fe1e1d</text></g><polygon points="279.66259765625,-17.2&#10;          279.66259765625,-21.2&#10;          287.66259765625,-26.7&#10;          432.33740234375,-26.7&#10;          432.33740234375,-11.7&#10;          287.66259765625,-11.7" class="tag-label-bkg"/><circle class="tag-hole" r="1.5" cy="-19.2" cx="283.66259765625"/><text x="291.66259765625" class="tag-label" y="-16">cherry-pick:Important commit</text><g transform="translate(-29.173359374999997, 25.991953125000002) rotate(-45, 400, 0)"><rect height="15" width="51.03515625" y="13.5" x="384.482421875" class="commit-label-bkg"/><text class="commit-label" y="25" x="386.482421875">8-1b1d89b</text></g></g></svg>