<svg aria-roledescription="gitGraph" role="graphics-document document"
     viewBox="-152.4921875 -19 1010.4921875 642.3052368164062" height="642.3052368164062"
     xmlns="http://www.w3.org/2000/svg" width="1010.4921875" id="mermaid-1704734402898"
     style="background-color: white;"><style>#mermaid-1704734402898{font-family:"trebuchet ms",verdana,arial,sans-serif;font-size:16px;fill:#333;}#mermaid-1704734402898 .error-icon{fill:#552222;}#mermaid-1704734402898 .error-text{fill:#552222;stroke:#552222;}#mermaid-1704734402898 .edge-thickness-normal{stroke-width:2px;}#mermaid-1704734402898 .edge-thickness-thick{stroke-width:3.5px;}#mermaid-1704734402898 .edge-pattern-solid{stroke-dasharray:0;}#mermaid-1704734402898 .edge-pattern-dashed{stroke-dasharray:3;}#mermaid-1704734402898 .edge-pattern-dotted{stroke-dasharray:2;}#mermaid-1704734402898 .marker{fill:#333333;stroke:#333333;}#mermaid-1704734402898 .marker.cross{stroke:#333333;}#mermaid-1704734402898 svg{font-family:"trebuchet ms",verdana,arial,sans-serif;font-size:16px;}#mermaid-1704734402898 .commit-id,#mermaid-1704734402898 .commit-msg,#mermaid-1704734402898 .branch-label{fill:lightgrey;color:lightgrey;font-family:'trebuchet ms',verdana,arial,sans-serif;font-family:var(--mermaid-font-family);}#mermaid-1704734402898 .branch-label0{fill:#ffffff;}#mermaid-1704734402898 .commit0{stroke:hsl(240, 100%, 46.2745098039%);fill:hsl(240, 100%, 46.2745098039%);}#mermaid-1704734402898 .commit-highlight0{stroke:hsl(60, 100%, 3.7254901961%);fill:hsl(60, 100%, 3.7254901961%);}#mermaid-1704734402898 .label0{fill:hsl(240, 100%, 46.2745098039%);}#mermaid-1704734402898 .arrow0{stroke:hsl(240, 100%, 46.2745098039%);}#mermaid-1704734402898 .branch-label1{fill:black;}#mermaid-1704734402898 .commit1{stroke:hsl(60, 100%, 43.5294117647%);fill:hsl(60, 100%, 43.5294117647%);}#mermaid-1704734402898 .commit-highlight1{stroke:rgb(0, 0, 160.5);fill:rgb(0, 0, 160.5);}#mermaid-1704734402898 .label1{fill:hsl(60, 100%, 43.5294117647%);}#mermaid-1704734402898 .arrow1{stroke:hsl(60, 100%, 43.5294117647%);}#mermaid-1704734402898 .branch-label2{fill:black;}#mermaid-1704734402898 .commit2{stroke:hsl(80, 100%, 46.2745098039%);fill:hsl(80, 100%, 46.2745098039%);}#mermaid-1704734402898 .commit-highlight2{stroke:rgb(48.8333333334, 0, 146.5000000001);fill:rgb(48.8333333334, 0, 146.5000000001);}#mermaid-1704734402898 .label2{fill:hsl(80, 100%, 46.2745098039%);}#mermaid-1704734402898 .arrow2{stroke:hsl(80, 100%, 46.2745098039%);}#mermaid-1704734402898 .branch-label3{fill:#ffffff;}#mermaid-1704734402898 .commit3{stroke:hsl(210, 100%, 46.2745098039%);fill:hsl(210, 100%, 46.2745098039%);}#mermaid-1704734402898 .commit-highlight3{stroke:rgb(146.5000000001, 73.2500000001, 0);fill:rgb(146.5000000001, 73.2500000001, 0);}#mermaid-1704734402898 .label3{fill:hsl(210, 100%, 46.2745098039%);}#mermaid-1704734402898 .arrow3{stroke:hsl(210, 100%, 46.2745098039%);}#mermaid-1704734402898 .branch-label4{fill:black;}#mermaid-1704734402898 .commit4{stroke:hsl(180, 100%, 46.2745098039%);fill:hsl(180, 100%, 46.2745098039%);}#mermaid-1704734402898 .commit-highlight4{stroke:rgb(146.5000000001, 0, 0);fill:rgb(146.5000000001, 0, 0);}#mermaid-1704734402898 .label4{fill:hsl(180, 100%, 46.2745098039%);}#mermaid-1704734402898 .arrow4{stroke:hsl(180, 100%, 46.2745098039%);}#mermaid-1704734402898 .branch-label5{fill:black;}#mermaid-1704734402898 .commit5{stroke:hsl(150, 100%, 46.2745098039%);fill:hsl(150, 100%, 46.2745098039%);}#mermaid-1704734402898 .commit-highlight5{stroke:rgb(146.5000000001, 0, 73.2500000001);fill:rgb(146.5000000001, 0, 73.2500000001);}#mermaid-1704734402898 .label5{fill:hsl(150, 100%, 46.2745098039%);}#mermaid-1704734402898 .arrow5{stroke:hsl(150, 100%, 46.2745098039%);}#mermaid-1704734402898 .branch-label6{fill:black;}#mermaid-1704734402898 .commit6{stroke:hsl(300, 100%, 46.2745098039%);fill:hsl(300, 100%, 46.2745098039%);}#mermaid-1704734402898 .commit-highlight6{stroke:rgb(0, 146.5000000001, 0);fill:rgb(0, 146.5000000001, 0);}#mermaid-1704734402898 .label6{fill:hsl(300, 100%, 46.2745098039%);}#mermaid-1704734402898 .arrow6{stroke:hsl(300, 100%, 46.2745098039%);}#mermaid-1704734402898 .branch-label7{fill:black;}#mermaid-1704734402898 .commit7{stroke:hsl(0, 100%, 46.2745098039%);fill:hsl(0, 100%, 46.2745098039%);}#mermaid-1704734402898 .commit-highlight7{stroke:rgb(0, 146.5000000001, 146.5000000001);fill:rgb(0, 146.5000000001, 146.5000000001);}#mermaid-1704734402898 .label7{fill:hsl(0, 100%, 46.2745098039%);}#mermaid-1704734402898 .arrow7{stroke:hsl(0, 100%, 46.2745098039%);}#mermaid-1704734402898 .branch{stroke-width:1;stroke:#333333;stroke-dasharray:2;}#mermaid-1704734402898 .commit-label{font-size:10px;fill:#000021;}#mermaid-1704734402898 .commit-label-bkg{font-size:10px;fill:#ffffde;opacity:0.5;}#mermaid-1704734402898 .tag-label{font-size:10px;fill:#131300;}#mermaid-1704734402898 .tag-label-bkg{fill:#ECECFF;stroke:hsl(240, 60%, 86.2745098039%);}#mermaid-1704734402898 .tag-hole{fill:#333;}#mermaid-1704734402898 .commit-merge{stroke:#ECECFF;fill:#ECECFF;}#mermaid-1704734402898 .commit-reverse{stroke:#ECECFF;fill:#ECECFF;stroke-width:3;}#mermaid-1704734402898 .commit-highlight-inner{stroke:#ECECFF;fill:#ECECFF;}#mermaid-1704734402898 .arrow{stroke-width:8;stroke-linecap:round;fill:none;}#mermaid-1704734402898 .gitTitleText{text-anchor:middle;font-size:18px;fill:#333;}:root{--mermaid-font-family:"trebuchet ms",verdana,arial,sans-serif;}</style><g/><g class="commit-bullets"/><g class="commit-labels"/><g><line class="branch branch0" y2="0" x2="850" y1="0" x1="0"/><rect transform="translate(-19, -9.5)" height="23" width="68.234375" y="-1.5" x="-84.234375" ry="4" rx="4" class="branchLabelBkg label0"/><g class="branchLabel"><g transform="translate(-94.234375, -10.5)" class="label branch-label0"><text><tspan class="row" x="0" dy="1em" xml:space="preserve">master</tspan></text></g></g><line class="branch branch1" y2="90" x2="850" y1="90" x1="0"/><rect transform="translate(-19, 80.5)" height="23" width="74.5078125" y="-1.5" x="-90.5078125" ry="4" rx="4" class="branchLabelBkg label1"/><g class="branchLabel"><g transform="translate(-100.5078125, 79.5)" class="label branch-label1"><text><tspan class="row" x="0" dy="1em" xml:space="preserve">develop</tspan></text></g></g><line class="branch branch2" y2="180" x2="850" y1="180" x1="0"/><rect transform="translate(-19, 170.5)" height="23" width="61.1484375" y="-1.5" x="-77.1484375" ry="4" rx="4" class="branchLabelBkg label2"/><g class="branchLabel"><g transform="translate(-87.1484375, 169.5)" class="label branch-label2"><text><tspan class="row" x="0" dy="1em" xml:space="preserve">hotfix</tspan></text></g></g><line class="branch branch3" y2="270" x2="850" y1="270" x1="0"/><rect transform="translate(-19, 260.5)" height="23" width="89.46875" y="-1.5" x="-105.46875" ry="4" rx="4" class="branchLabelBkg label3"/><g class="branchLabel"><g transform="translate(-115.46875, 259.5)" class="label branch-label3"><text><tspan class="row" x="0" dy="1em" xml:space="preserve">feature/A</tspan></text></g></g><line class="branch branch4" y2="360" x2="850" y1="360" x1="0"/><rect transform="translate(-19, 350.5)" height="23" width="88.53125" y="-1.5" x="-104.53125" ry="4" rx="4" class="branchLabelBkg label4"/><g class="branchLabel"><g transform="translate(-114.53125, 349.5)" class="label branch-label4"><text><tspan class="row" x="0" dy="1em" xml:space="preserve">feature/B</tspan></text></g></g><line class="branch branch5" y2="450" x2="850" y1="450" x1="0"/><rect transform="translate(-19, 440.5)" height="23" width="89.46875" y="-1.5" x="-105.46875" ry="4" rx="4" class="branchLabelBkg label5"/><g class="branchLabel"><g transform="translate(-115.46875, 439.5)" class="label branch-label5"><text><tspan class="row" x="0" dy="1em" xml:space="preserve">feature/C</tspan></text></g></g><line class="branch branch6" y2="540" x2="850" y1="540" x1="0"/><rect transform="translate(-19, 530.5)" height="23" width="109.4921875" y="-1.5" x="-125.4921875" ry="4" rx="4" class="branchLabelBkg label6"/><g class="branchLabel"><g transform="translate(-135.4921875, 529.5)" class="label branch-label6"><text><tspan class="row" x="0" dy="1em" xml:space="preserve">release/v1.0</tspan></text></g></g></g><g class="commit-arrows"><path class="arrow arrow1" d="M 10 0 L 10 70 A 20 20, 0, 0, 0, 30 90 L 60 90"/><path class="arrow arrow0" d="M 10 0 L 10 0  10 0 L 110 0"/><path class="arrow arrow1" d="M 60 90 L 60 90  60 90 L 160 90"/><path class="arrow arrow5" d="M 160 90 L 160 430 A 20 20, 0, 0, 0, 180 450 L 210 450"/><path class="arrow arrow2" d="M 110 0 L 110 160 A 20 20, 0, 0, 0, 130 180 L 260 180"/><path class="arrow arrow0" d="M 110 0 L 110 0  110 0 L 310 0"/><path class="arrow arrow2" d="M 260 180 L 290 180 A 20 20, 0, 0, 0, 310 160 L 310 0"/><path class="arrow arrow1" d="M 160 90 L 160 90  160 90 L 360 90"/><path class="arrow arrow2" d="M 260 180 L 340 180 A 20 20, 0, 0, 0, 360 160 L 360 90"/><path class="arrow arrow3" d="M 60 90 L 60 250 A 20 20, 0, 0, 0, 80 270 L 410 270"/><path class="arrow arrow1" d="M 360 90 L 360 90  360 90 L 460 90"/><path class="arrow arrow3" d="M 410 270 L 440 270 A 20 20, 0, 0, 0, 460 250 L 460 90"/><path class="arrow arrow4" d="M 60 90 L 60 340 A 20 20, 0, 0, 0, 80 360 L 510 360"/><path class="arrow arrow6" d="M 460 90 L 460 520 A 20 20, 0, 0, 0, 480 540 L 560 540"/><path class="arrow arrow0" d="M 310 0 L 310 0  310 0 L 610 0"/><path class="arrow arrow6" d="M 560 540 L 590 540 A 20 20, 0, 0, 0, 610 520 L 610 0"/><path class="arrow arrow1" d="M 460 90 L 460 90  460 90 L 660 90"/><path class="arrow arrow1" d="M 660 90 L 660 90  660 90 L 710 90"/><path class="arrow arrow1" d="M 560 540 L 560 325 A 10 10, 0, 0, 1, 570 315 L 700 315 A 10 10, 0, 0, 0, 710 305 L 710 90"/><path class="arrow arrow1" d="M 710 90 L 710 90  710 90 L 760 90"/><path class="arrow arrow1" d="M 760 90 L 760 90  760 90 L 810 90"/><path class="arrow arrow1" d="M 510 360 L 510 235 A 10 10, 0, 0, 1, 520 225 L 800 225 A 10 10, 0, 0, 0, 810 215 L 810 90"/></g><g class="commit-bullets"><circle class="commit Initial commit commit0" r="10" cy="0" cx="10"/><circle class="commit 1-60cd095 commit1" r="10" cy="90" cx="60"/><circle class="commit Buggy commit commit0" r="10" cy="0" cx="110"/><path class="commit commit-reverse Buggy commit commit0" d="M 105,-5L115,5M105,5L115,-5"/><circle class="commit 3-22628f7 commit1" r="10" cy="90" cx="160"/><circle class="commit 4-30d77f2 commit5" r="10" cy="450" cx="210"/><rect class="commit Fix bugs commit-highlight2 commit-highlight-outer" width="20" height="20" y="170" x="250"/><rect class="commit Fix bugs commit2 commit-highlight-inner" width="12" height="12" y="174" x="254"/><circle class="commit 6-93cdca8 commit0" r="9" cy="0" cx="310"/><circle class="commit commit-merge 6-93cdca8 commit0" r="6" cy="0" cx="310"/><circle class="commit 7-e2f3352 commit1" r="9" cy="90" cx="360"/><circle class="commit commit-merge 7-e2f3352 commit1" r="6" cy="90" cx="360"/><circle class="commit 8-eea99a7 commit3" r="10" cy="270" cx="410"/><circle class="commit 9-c4da19b commit1" r="9" cy="90" cx="460"/><circle class="commit commit-merge 9-c4da19b commit1" r="6" cy="90" cx="460"/><circle class="commit 10-3e17c6b commit4" r="10" cy="360" cx="510"/><circle class="commit Work on release commit6" r="10" cy="540" cx="560"/><circle class="commit 12-cb8a518 commit0" r="9" cy="0" cx="610"/><circle class="commit commit-merge 12-cb8a518 commit0" r="6" cy="0" cx="610"/><circle class="commit 13-9c6bfa7 commit1" r="10" cy="90" cx="660"/><circle class="commit 14-1c81485 commit1" r="9" cy="90" cx="710"/><circle class="commit commit-merge 14-1c81485 commit1" r="6" cy="90" cx="710"/><circle class="commit 15-5768f7f commit1" r="10" cy="90" cx="760"/><circle class="commit 16-061fdd6 commit1" r="9" cy="90" cx="810"/><circle class="commit commit-merge 16-061fdd6 commit1" r="6" cy="90" cx="810"/></g><g class="commit-labels"><g transform="translate(-35.58251953125, 31.72646484375) rotate(-45, 0, 0)"><rect height="15" width="67.9013671875" y="13.5" x="-23.95068359375" class="commit-label-bkg"/><text class="commit-label" y="25" x="-21.95068359375">Initial commit</text></g><g transform="translate(-28.6553125, 25.528437500000003) rotate(-45, 50, 90)"><rect height="15" width="49.671875" y="103.5" x="35.1640625" class="commit-label-bkg"/><text class="commit-label" y="115" x="37.1640625">1-60cd095</text></g><g transform="translate(-35.5732421875, 31.7181640625) rotate(-45, 100, 0)"><rect height="15" width="67.876953125" y="13.5" x="76.0615234375" class="commit-label-bkg"/><text class="commit-label" y="25" x="78.0615234375">Buggy commit</text></g><g transform="translate(-28.33654296875, 25.243222656249998) rotate(-45, 150, 90)"><rect height="15" width="48.8330078125" y="103.5" x="135.58349609375" class="commit-label-bkg"/><text class="commit-label" y="115" x="137.58349609375">3-22628f7</text></g><g transform="translate(-28.840859375, 25.694453125000003) rotate(-45, 200, 450)"><rect height="15" width="50.16015625" y="463.5" x="184.919921875" class="commit-label-bkg"/><text class="commit-label" y="475" x="186.919921875">4-30d77f2</text></g><g transform="translate(-25.4275390625, 22.6404296875) rotate(-45, 250, 180)"><rect height="15" width="41.177734375" y="193.5" x="239.4111328125" class="commit-label-bkg"/><text class="commit-label" y="205" x="241.4111328125">Fix bugs</text></g><g transform="translate(-29.091718750000002, 25.91890625) rotate(-45, 400, 270)"><rect height="15" width="50.8203125" y="283.5" x="384.58984375" class="commit-label-bkg"/><text class="commit-label" y="295" x="386.58984375">8-eea99a7</text></g><g transform="translate(-30.88595703125, 27.52427734375) rotate(-45, 500, 360)"><rect height="15" width="55.5419921875" y="373.5" x="482.22900390625" class="commit-label-bkg"/><text class="commit-label" y="385" x="484.22900390625">10-3e17c6b</text></g><g transform="translate(-39.1387109375, 34.908320312499995) rotate(-45, 550, 540)"><rect height="15" width="77.259765625" y="553.5" x="521.3701171875" class="commit-label-bkg"/><text class="commit-label" y="565" x="523.3701171875">Work on release</text></g><polygon points="537.59326171875,522.8&#10;          537.59326171875,518.8&#10;          545.59326171875,513.3&#10;          574.40673828125,513.3&#10;          574.40673828125,528.3&#10;          545.59326171875,528.3" class="tag-label-bkg"/><circle class="tag-hole" r="1.5" cy="520.8" cx="541.59326171875"/><text x="549.59326171875" class="tag-label" y="524">v1.0</text><g transform="translate(-30.346015625, 27.041171875) rotate(-45, 650, 90)"><rect height="15" width="54.12109375" y="103.5" x="632.939453125" class="commit-label-bkg"/><text class="commit-label" y="115" x="634.939453125">13-9c6bfa7</text></g><g transform="translate(-29.949316406250002, 26.68623046875) rotate(-45, 750, 90)"><rect height="15" width="53.0771484375" y="103.5" x="733.46142578125" class="commit-label-bkg"/><text class="commit-label" y="115" x="735.46142578125">15-5768f7f</text></g></g></svg>